<svg aria-hidden="true" style="position: absolute; width: 0; height: 0; overflow: hidden;" xmlns="http://www.w3.org/2000/svg" xmlns:xlink="http://www.w3.org/1999/xlink">
    <defs>
        <symbol id="icon-facebook" viewBox="0 0 32 32">
            <path d="M13.001 28.072h4.362v-10.069h3.223l0.648-4.070h-3.871v-3.074c0-1.139 1.089-1.786 2.135-1.786h1.886v-3.373l-3.373-0.149c-3.223-0.199-5.010 2.334-5.010 5.358v3.024h-3.672v4.070h3.672v10.069z"></path>
        </symbol>

        <symbol id="icon-grupoicon1" viewBox="0 0 32 32">
            <path d="M5.913 0.061l4.875 4.615-9.049-0.006v22.392h23.652v-8.561l4.87 4.61v-23.050h-24.348zM25.177 17.958l-13.823-13.085h13.823v13.085zM20.886 23.786h-15.404v-15.059h1.089v14.040h14.315v1.020zM9.12 30.042l-0.569 1.172-0.569-1.172h-0.477l0.831 1.562v0.911h0.431v-0.911l0.829-1.562h-0.475zM9.835 32.515l0.2-0.576h0.958l0.202 0.576h0.449l-0.936-2.473h-0.386l-0.934 2.473h0.447zM10.514 30.568l0.358 1.025h-0.717l0.358-1.025zM12.78 31.534c-0.058 0.087-0.093 0.194-0.093 0.31 0 0.001 0 0.003 0 0.004v-0c0 0.209 0.073 0.378 0.219 0.508s0.343 0.194 0.588 0.194c0.244 0 0.455-0.067 0.632-0.199l0.139 0.165h0.479l-0.363-0.43c0.143-0.195 0.214-0.445 0.214-0.749h-0.358c0 0.167-0.035 0.318-0.103 0.454l-0.478-0.563 0.168-0.122c0.102-0.069 0.188-0.155 0.255-0.255l0.002-0.003c0.049-0.080 0.078-0.177 0.078-0.281 0-0.001 0-0.003-0-0.004v0c0-0.003 0-0.006 0-0.010 0-0.152-0.067-0.289-0.173-0.382l-0.001-0c-0.11-0.1-0.256-0.16-0.417-0.16-0.009 0-0.017 0-0.026 0.001l0.001-0c-0.199 0-0.358 0.057-0.475 0.17s-0.177 0.265-0.177 0.459c0 0.079 0.019 0.161 0.056 0.246 0.039 0.085 0.106 0.188 0.202 0.309-0.183 0.131-0.306 0.245-0.368 0.341zM13.896 32.081c-0.106 0.086-0.242 0.138-0.39 0.139h-0c-0.006 0-0.013 0.001-0.020 0.001-0.107 0-0.203-0.041-0.276-0.108l0 0c-0.068-0.067-0.111-0.161-0.111-0.264 0-0.005 0-0.010 0-0.015l-0 0.001c0-0.132 0.068-0.25 0.204-0.353l0.053-0.038 0.54 0.637zM13.453 30.985c-0.117-0.144-0.175-0.263-0.175-0.358 0-0.083 0.024-0.151 0.072-0.206 0.045-0.050 0.109-0.082 0.181-0.082 0.004 0 0.008 0 0.011 0l-0.001-0c0.003-0 0.006-0 0.009-0 0.068 0 0.13 0.027 0.176 0.070l-0-0c0.049 0.046 0.073 0.101 0.073 0.165 0 0.003 0 0.005 0 0.008 0 0.092-0.041 0.174-0.105 0.231l-0 0-0.053 0.043-0.189 0.129zM17.478 32.328c0.17-0.148 0.267-0.355 0.292-0.618h-0.428c-0.023 0.176-0.077 0.303-0.161 0.378s-0.212 0.114-0.381 0.114c-0.184 0-0.325-0.070-0.421-0.211s-0.143-0.344-0.143-0.612v-0.218c0.003-0.264 0.054-0.463 0.153-0.6 0.101-0.137 0.245-0.205 0.431-0.205 0.161 0 0.282 0.040 0.365 0.118s0.136 0.207 0.157 0.384h0.428c-0.028-0.271-0.124-0.48-0.291-0.628s-0.386-0.223-0.659-0.223c-0.202 0-0.381 0.049-0.536 0.145-0.155 0.099-0.277 0.239-0.352 0.405l-0.002 0.006c-0.079 0.173-0.125 0.375-0.125 0.588 0 0.010 0 0.020 0 0.031l-0-0.002v0.231c0.003 0.227 0.046 0.427 0.127 0.6s0.198 0.305 0.346 0.399c0.151 0.093 0.325 0.139 0.522 0.139 0.282 0 0.508-0.073 0.678-0.221zM20.003 31.982c0.083-0.183 0.126-0.397 0.126-0.639v-0.137c0-0.007 0-0.016 0-0.025 0-0.22-0.048-0.43-0.133-0.618l0.004 0.009c-0.079-0.175-0.203-0.317-0.358-0.415l-0.004-0.002c-0.155-0.097-0.333-0.146-0.535-0.146s-0.38 0.049-0.536 0.147c-0.155 0.097-0.275 0.238-0.362 0.423-0.081 0.179-0.128 0.388-0.128 0.608 0 0.011 0 0.021 0 0.032l-0-0.002v0.139c0.001 0.237 0.044 0.445 0.129 0.626 0.086 0.182 0.207 0.321 0.364 0.42 0.157 0.097 0.336 0.146 0.536 0.146 0.203 0 0.382-0.049 0.537-0.146 0.156-0.099 0.276-0.239 0.36-0.422zM19.543 30.584c0.104 0.146 0.156 0.357 0.156 0.631v0.129c0 0.278-0.051 0.49-0.154 0.635-0.102 0.145-0.248 0.218-0.438 0.218-0.005 0-0.012 0-0.018 0-0.175 0-0.33-0.088-0.422-0.221l-0.001-0.002c-0.106-0.148-0.158-0.358-0.158-0.63v-0.143c0.002-0.266 0.056-0.472 0.159-0.616 0.093-0.133 0.245-0.219 0.418-0.219 0.006 0 0.013 0 0.019 0l-0.001-0c0.191 0 0.337 0.073 0.44 0.219z"></path>
        </symbol>

        <symbol id="icon-grupoicon2" viewBox="0 0 32 32">
            <path d="M14.153 1.934h-0.088c-0.134-0.008-0.269-0.012-0.403-0.015h-0.291c-0.254 0-0.513 0.006-0.771 0.019-0.009-0.001-0.019-0.001-0.029-0.001s-0.020 0-0.030 0.001l0.001-0c-2.471 0.144-4.765 0.762-6.839 1.764l0.108-0.047-0.276 0.133v14.171l0.648-0.22c0.568-0.195 1.174-0.371 1.8-0.534 1.548-0.414 3.33-0.664 5.166-0.688l0.015-0v1.862c-0.232 0.001-0.456 0.008-0.682 0.019h-0.054c-1.455 0.082-2.818 0.3-4.13 0.644l0.144-0.032c-1.804 0.459-3.384 1.092-4.853 1.904l0.104-0.053v-18.174c1.434-0.853 3.093-1.547 4.851-1.998l0.132-0.029c1.407-0.378 3.024-0.599 4.691-0.605h0.277c0.327 0.008 0.646 0.023 0.946 0.045 0.863 0.062 1.661 0.195 2.433 0.394l-0.094-0.021v1.832c-0.668-0.164-1.459-0.287-2.267-0.343l-0.046-0.003c-0.158-0.013-0.316-0.027-0.463-0.027zM17.378 3.807c0.406 0.031 0.828 0.046 1.253 0.046 1.757-0.007 3.457-0.238 5.077-0.665l-0.14 0.031c1.803-0.46 3.383-1.094 4.852-1.905l-0.105 0.053v17.85c-1.435 0.852-3.094 1.547-4.851 1.997l-0.132 0.029c-1.407 0.377-3.024 0.597-4.691 0.604h-0.004c-0.034 0-0.073 0-0.113 0-1.224 0-2.413-0.154-3.548-0.442l0.099 0.021v-17.965c0.275 0.063 0.559 0.122 0.847 0.17 0.473 0.080 0.972 0.138 1.457 0.174zM26.462 3.946l-0.648 0.218c-0.391 0.144-0.992 0.328-1.601 0.493l-0.2 0.046c-1.613 0.432-3.465 0.683-5.376 0.69h-0.004c-0.422 0-0.811-0.012-1.187-0.036l-0.516-0.034v14.577l0.444 0.038c0.411 0.036 0.835 0.054 1.263 0.054 1.508-0.007 2.967-0.206 4.357-0.576l-0.12 0.027c1.27-0.323 2.372-0.73 3.416-1.237l-0.106 0.046 0.277-0.133v-14.175z"></path>
            <path d="M4.952 27.072c-0.174-0.18-0.418-0.292-0.688-0.292-0.011 0-0.023 0-0.034 0.001l0.002-0c-0.004-0-0.009-0-0.014-0-0.145 0-0.283 0.029-0.409 0.081l0.007-0.003c-0.246 0.099-0.437 0.291-0.53 0.532l-0.002 0.006c-0.051 0.128-0.076 0.264-0.074 0.402v2.428c-0.006 0.172 0.027 0.341 0.095 0.498 0.058 0.125 0.14 0.236 0.243 0.326 0.097 0.081 0.211 0.141 0.333 0.173 0.118 0.033 0.241 0.050 0.363 0.050 0.135 0.001 0.269-0.028 0.392-0.084 0.364-0.162 0.614-0.521 0.614-0.938v-0.271h-0.636v0.216c0 0.004 0 0.009 0 0.015 0 0.073-0.014 0.142-0.039 0.206l0.001-0.004c-0.022 0.054-0.053 0.099-0.092 0.137l-0 0c-0.073 0.057-0.165 0.091-0.265 0.093h-0c-0.011 0.001-0.024 0.002-0.037 0.002-0.107 0-0.201-0.052-0.26-0.132l-0.001-0.001c-0.053-0.086-0.085-0.189-0.085-0.301 0-0.009 0-0.017 0.001-0.026l-0 0.001v-2.264c-0.004-0.125 0.023-0.25 0.078-0.363 0.059-0.090 0.159-0.149 0.273-0.149 0.013 0 0.026 0.001 0.039 0.002l-0.002-0c0.004-0 0.008-0 0.012-0 0.111 0 0.209 0.054 0.271 0.136l0.001 0.001c0.066 0.086 0.105 0.194 0.105 0.312 0 0.005-0 0.010-0 0.014v-0.001 0.21h0.628v-0.248c0-0.003 0-0.007 0-0.011 0-0.149-0.028-0.291-0.080-0.422l0.003 0.008c-0.050-0.133-0.122-0.246-0.213-0.342l0 0zM8.723 27.044c-0.194-0.164-0.446-0.265-0.722-0.266h-0c-0.129 0.001-0.258 0.024-0.379 0.068-0.262 0.094-0.468 0.287-0.579 0.533l-0.003 0.006c-0.064 0.148-0.096 0.308-0.093 0.47v2.328c-0.004 0.164 0.028 0.326 0.093 0.477 0.058 0.125 0.141 0.237 0.246 0.326 0.097 0.090 0.211 0.159 0.335 0.205 0.112 0.043 0.242 0.067 0.378 0.067 0.277 0 0.531-0.103 0.724-0.273l-0.001 0.001c0.101-0.092 0.183-0.202 0.239-0.326 0.065-0.15 0.097-0.313 0.093-0.477v-2.329c0-0.006 0-0.013 0-0.020 0-0.163-0.034-0.317-0.096-0.457l0.003 0.007c-0.059-0.133-0.14-0.246-0.239-0.34l-0-0zM8.426 30.183c0.001 0.011 0.002 0.024 0.002 0.036 0 0.118-0.049 0.225-0.128 0.301l-0 0c-0.080 0.068-0.185 0.109-0.299 0.109s-0.219-0.041-0.3-0.109l0.001 0.001c-0.079-0.076-0.128-0.182-0.128-0.3 0-0.013 0.001-0.026 0.002-0.039l-0 0.002v-2.329c-0.001-0.011-0.002-0.023-0.002-0.036 0-0.118 0.049-0.225 0.128-0.301l0-0c0.080-0.068 0.185-0.109 0.299-0.109s0.219 0.041 0.3 0.109l-0.001-0.001c0.079 0.076 0.128 0.183 0.128 0.3 0 0.013-0.001 0.025-0.002 0.038l0-0.002v2.33zM13.675 31.223v-4.408h-0.61l-0.802 2.333h-0.011l-0.808-2.333h-0.604v4.408h0.63v-2.682h0.012l0.616 1.896h0.314l0.622-1.896h0.011v2.682h0.63zM17.253 27.123c-0.097-0.109-0.22-0.191-0.356-0.241-0.129-0.043-0.277-0.068-0.431-0.068-0.009 0-0.018 0-0.027 0l0.001-0h-0.936v4.408h0.628v-1.722h0.323c0.196 0.009 0.391-0.032 0.567-0.12 0.144-0.081 0.261-0.195 0.343-0.333l0.002-0.004c0.072-0.117 0.122-0.248 0.144-0.384 0.024-0.166 0.036-0.333 0.034-0.501 0.006-0.211-0.015-0.423-0.061-0.63-0.044-0.159-0.125-0.295-0.232-0.405l0 0zM16.929 28.468c-0.003 0.084-0.024 0.163-0.060 0.233l0.001-0.003c-0.036 0.068-0.092 0.121-0.16 0.153l-0.002 0.001c-0.078 0.036-0.168 0.056-0.264 0.056-0.011 0-0.023-0-0.034-0.001l0.002 0h-0.287v-1.499h0.324c0.009-0 0.020-0.001 0.030-0.001 0.092 0 0.179 0.021 0.257 0.057l-0.004-0.002c0.065 0.038 0.116 0.094 0.146 0.161l0.001 0.002c0.035 0.077 0.053 0.161 0.055 0.245v0.293c0 0.102 0.006 0.209 0 0.303h-0.006zM20.229 26.815h-0.515l-0.972 4.408h0.628l0.184-0.947h0.856l0.185 0.947h0.628l-0.996-4.408zM19.649 29.676l0.309-1.598h0.012l0.307 1.598h-0.628zM24.288 29.471h-0.012l-0.948-2.656h-0.604v4.408h0.628v-2.651h0.013l0.96 2.651h0.591v-4.408h-0.628v2.656zM28.127 26.815l-0.506 1.752h-0.013l-0.506-1.752h-0.664l0.863 2.545v1.863h0.628v-1.863l0.863-2.545h-0.666z"></path>
        </symbol>

        <symbol id="icon-grupoicon3" viewBox="0 0 32 32">
            <path d="M5.266 30.356c0.023 0.001 0.044 0.010 0.061 0.024l-0-0 0.155 0.148c-0.121 0.12-0.269 0.216-0.437 0.282-0.196 0.071-0.406 0.106-0.619 0.101-0.199 0.004-0.397-0.028-0.581-0.095-0.17-0.062-0.316-0.152-0.439-0.267l0.001 0.001c-0.12-0.113-0.215-0.25-0.28-0.403l-0.003-0.008c-0.063-0.152-0.1-0.328-0.1-0.513 0-0.005 0-0.010 0-0.016v0.001c-0-0.008-0-0.018-0-0.027 0-0.362 0.157-0.688 0.407-0.912l0.001-0.001c0.132-0.116 0.291-0.207 0.465-0.267 0.191-0.064 0.395-0.097 0.599-0.095 0.011-0 0.024-0 0.037-0 0.186 0 0.364 0.031 0.53 0.089l-0.011-0.003c0.154 0.058 0.295 0.139 0.417 0.238l-0.13 0.158c-0.009 0.011-0.020 0.021-0.032 0.028l-0.001 0c-0.013 0.008-0.028 0.012-0.045 0.012-0.003 0-0.005-0-0.008-0l0 0c-0.021-0.001-0.041-0.007-0.058-0.017l0.001 0-0.069-0.043-0.097-0.053c-0.089-0.043-0.191-0.076-0.299-0.094l-0.006-0.001c-0.065-0.011-0.139-0.017-0.215-0.017-0.006 0-0.011 0-0.017 0h0.001c-0.004-0-0.009-0-0.014-0-0.149 0-0.292 0.026-0.425 0.074l0.009-0.003c-0.128 0.045-0.243 0.112-0.338 0.199-0.096 0.091-0.171 0.199-0.219 0.316-0.050 0.119-0.079 0.258-0.079 0.403 0 0.005 0 0.010 0 0.015v-0.001c-0 0.005-0 0.011-0 0.017 0 0.147 0.029 0.287 0.082 0.414l-0.003-0.007c0.048 0.117 0.121 0.223 0.215 0.315 0.089 0.085 0.199 0.153 0.322 0.196 0.127 0.046 0.262 0.068 0.399 0.068 0.080 0.001 0.159-0.004 0.237-0.014 0.197-0.020 0.373-0.099 0.513-0.219l-0.001 0.001c0.020-0.016 0.045-0.026 0.073-0.027h0zM9.745 29.611c0.003 0.179-0.033 0.357-0.105 0.525-0.069 0.161-0.168 0.296-0.29 0.406l-0.001 0.001c-0.129 0.114-0.281 0.205-0.449 0.264l-0.009 0.003c-0.176 0.060-0.379 0.094-0.589 0.094s-0.414-0.035-0.603-0.098l0.013 0.004c-0.176-0.062-0.327-0.153-0.456-0.269l0.001 0.001c-0.124-0.112-0.224-0.249-0.292-0.403l-0.003-0.008c-0.066-0.155-0.105-0.335-0.105-0.525s0.039-0.37 0.108-0.534l-0.003 0.009c0.066-0.154 0.166-0.294 0.295-0.412 0.129-0.113 0.284-0.201 0.455-0.258 0.176-0.061 0.379-0.096 0.59-0.096s0.414 0.035 0.603 0.1l-0.013-0.004c0.172 0.060 0.328 0.152 0.457 0.267 0.128 0.117 0.228 0.256 0.293 0.406 0.072 0.169 0.107 0.348 0.105 0.528zM9.338 29.611c0-0.006 0-0.014 0-0.021 0-0.144-0.027-0.281-0.077-0.407l0.003 0.008c-0.094-0.243-0.287-0.429-0.529-0.512l-0.006-0.002c-0.128-0.044-0.275-0.069-0.428-0.069s-0.301 0.025-0.438 0.072l0.010-0.003c-0.127 0.045-0.237 0.113-0.328 0.2l0-0c-0.090 0.086-0.162 0.191-0.207 0.309l-0.002 0.006c-0.047 0.125-0.074 0.27-0.074 0.421s0.027 0.296 0.077 0.43l-0.003-0.009c0.094 0.243 0.288 0.429 0.531 0.51l0.006 0.002c0.276 0.090 0.58 0.090 0.857 0 0.124-0.043 0.237-0.111 0.327-0.197 0.093-0.092 0.164-0.199 0.208-0.315 0.052-0.135 0.077-0.278 0.074-0.421zM12.801 30.053l0.041 0.094c0.015-0.033 0.028-0.064 0.044-0.094 0.015-0.032 0.032-0.063 0.050-0.092l0.991-1.565c0.020-0.027 0.037-0.044 0.057-0.049s0.044-0.009 0.068-0.009c0.005 0 0.009 0 0.014 0l-0.001-0h0.293v2.546h-0.347v-1.951c-0.001-0.013-0.001-0.029-0.001-0.044s0.001-0.031 0.002-0.046l-0 0.002-0.998 1.588c-0.014 0.025-0.034 0.044-0.058 0.057l-0.001 0c-0.024 0.013-0.053 0.021-0.084 0.021-0.001 0-0.001 0-0.002 0h-0.056c-0.001 0-0.002 0-0.002 0-0.030 0-0.059-0.008-0.084-0.022l0.001 0c-0.025-0.013-0.044-0.033-0.057-0.057l-0-0.001-1.026-1.597v2.043h-0.335v-2.54h0.292c0.004-0 0.009-0 0.013-0 0.024 0 0.048 0.003 0.070 0.009l-0.002-0c0.024 0.011 0.043 0.028 0.054 0.049l1.012 1.567c0.020 0.028 0.037 0.059 0.050 0.091zM16.529 29.926v0.953h-0.387v-2.541h0.865c0.164-0.003 0.326 0.016 0.483 0.055 0.125 0.031 0.242 0.085 0.341 0.159 0.083 0.066 0.148 0.149 0.192 0.245l0.002 0.004c0.046 0.104 0.068 0.215 0.066 0.326 0 0.005 0 0.010 0 0.016 0 0.23-0.11 0.433-0.279 0.562l-0.002 0.001c-0.1 0.076-0.216 0.134-0.343 0.169-0.13 0.037-0.28 0.059-0.435 0.059-0.011 0-0.023-0-0.034-0l0.002 0-0.469-0.007zM16.529 29.653h0.469c0.102 0.001 0.203-0.012 0.301-0.038 0.083-0.024 0.155-0.062 0.218-0.111l-0.002 0.001c0.109-0.090 0.178-0.225 0.178-0.377 0-0.002 0-0.004-0-0.006v0c0.001-0.008 0.001-0.018 0.001-0.027 0-0.065-0.014-0.127-0.040-0.182l0.001 0.003c-0.033-0.069-0.078-0.127-0.134-0.173l-0.001-0.001c-0.13-0.087-0.289-0.139-0.461-0.139-0.022 0-0.043 0.001-0.064 0.002l0.003-0h-0.469v1.047zM21.741 30.884h-0.306c-0.001 0-0.003 0-0.005 0-0.030 0-0.058-0.009-0.081-0.025l0.001 0c-0.022-0.015-0.039-0.035-0.051-0.058l-0-0.001-0.263-0.614h-1.325l-0.273 0.614c-0.024 0.049-0.073 0.083-0.131 0.083-0.001 0-0.003-0-0.004-0h-0.307l1.163-2.546h0.403l1.179 2.546zM19.821 29.938h1.094l-0.462-1.035c-0.035-0.078-0.064-0.158-0.087-0.24l-0.045 0.133c-0.014 0.041-0.028 0.078-0.043 0.108l-0.457 1.034zM23.416 28.35c0.023 0.011 0.043 0.026 0.058 0.046l1.696 1.919v-1.976h0.347v2.546h-0.193c-0.001 0-0.003 0-0.005 0-0.027 0-0.053-0.006-0.076-0.016l0.001 0c-0.024-0.012-0.045-0.028-0.062-0.047l-0-0-1.695-1.917c0.001 0.013 0.001 0.028 0.001 0.044s-0 0.031-0.002 0.046l0-0.002v1.892h-0.347v-2.546h0.206c0.001 0 0.001 0 0.002 0 0.024 0 0.048 0.005 0.069 0.013l-0.001-0zM28.375 29.871v1.011h-0.388v-1.011l-1.072-1.533h0.347c0.003-0 0.006-0 0.009-0 0.028 0 0.053 0.008 0.075 0.022l-0.001-0c0.021 0.017 0.039 0.036 0.053 0.058l0.671 0.989c0.046 0.065 0.085 0.14 0.116 0.219l0.002 0.007 0.051-0.11c0.018-0.041 0.041-0.079 0.065-0.117l0.661-0.996c0.014-0.021 0.031-0.038 0.049-0.054l0-0c0.021-0.016 0.048-0.025 0.077-0.025 0.003 0 0.005 0 0.007 0h0.351l-1.074 1.54zM12.609 24.066c0.169 0.018 0.34 0.033 0.512 0.047 2.617-1.017 4.829-2.681 6.363-4.784s2.319-4.553 2.259-7.043l-2.883-2.505c0.586 2.65 0.311 5.39-0.792 7.913s-2.994 4.729-5.459 6.372z"></path>
            <path d="M11.58 23.95l0.078 0.013c2.634-1.637 4.641-3.922 5.764-6.561s1.308-5.51 0.533-8.242l-4.107-3.568c1.66 2.933 2.33 6.215 1.927 9.465-0.401 3.25-1.856 6.333-4.196 8.892zM25.506 15.228c-0.698 2.735-2.392 5.202-4.832 7.034-0.666 0.507-1.418 0.982-2.209 1.391l-0.086 0.040c1.987-0.507 3.812-1.404 5.337-2.621s2.707-2.723 3.456-4.4l-1.665-1.445z"></path>
            <path d="M24.853 14.825l-2.372-2.060c-0.046 2.349-0.814 4.644-2.226 6.648s-3.416 3.641-5.803 4.745h0.011c0.532 0 1.063-0.028 1.591-0.082 2.231-0.791 4.202-2.050 5.737-3.664s2.586-3.533 3.060-5.586zM11.922 4.087l-2.829-2.461c-2.529 0.849-4.703 2.342-6.24 4.282-1.536 1.942-2.362 4.24-2.37 6.595 0.009 2.603 1.018 5.129 2.866 7.177 1.847 2.049 4.428 3.504 7.334 4.134 2.595-2.746 4.114-6.14 4.336-9.687s-0.863-7.065-3.098-10.041zM31.388 14.445c-0.010-3.088-1.427-6.047-3.94-8.23s-5.919-3.414-9.473-3.423c-0.008-0-0.018-0-0.028-0-1.708 0-3.349 0.284-4.88 0.808l0.106-0.032 17.319 15.047c0.564-1.226 0.894-2.659 0.896-4.17v-0.001z"></path>
        </symbol>

        <symbol id="icon-grupoicon4" viewBox="0 0 32 32">
            <path d="M4.949 13.060h-0.001c-0.903 0-1.635 0.651-1.635 1.453v0.001c0 0.802 0.732 1.453 1.635 1.453h0.001c0.903 0 1.635-0.651 1.635-1.453v-0.001c0-0.802-0.732-1.453-1.635-1.453zM17.015 12.595c-0.003-1.114-0.502-2.182-1.388-2.97s-2.088-1.232-3.342-1.234c-1.254 0.002-2.457 0.446-3.344 1.234s-1.387 1.856-1.389 2.971v6.146s9.462-0.937 9.463-6.144v-0.001zM0 20.757c0.002 0.776 0.35 1.519 0.967 2.067s1.453 0.858 2.325 0.86c0.872-0.002 1.708-0.311 2.325-0.859s0.965-1.291 0.967-2.066v-4.276s-6.584 0.652-6.584 4.275zM3.292 21.523c-0.171 0-0.337-0.045-0.479-0.129-0.138-0.081-0.247-0.198-0.315-0.339l-0.002-0.005c-0.041-0.086-0.065-0.186-0.065-0.293 0-0.053 0.006-0.105 0.017-0.154l-0.001 0.005c0.033-0.149 0.115-0.285 0.236-0.392s0.274-0.18 0.441-0.21c0.051-0.009 0.109-0.015 0.168-0.015 0.118 0 0.232 0.021 0.336 0.060l-0.007-0.002c0.158 0.058 0.293 0.156 0.387 0.282s0.145 0.274 0.145 0.425c0 0.001 0 0.001 0 0.002 0 0.106-0.024 0.207-0.067 0.297l0.002-0.004c-0.047 0.098-0.109 0.181-0.186 0.249l-0.001 0.001c-0.080 0.072-0.175 0.128-0.28 0.167-0.098 0.037-0.211 0.058-0.329 0.058-0.001 0-0.001 0-0.002 0h0v-0.003zM9.31 20.152v1.606h-0.331v-1.606h0.331zM9.95 20.838v0.258h-0.73v-0.258h0.73zM10.027 20.152v0.259h-0.807v-0.259h0.808zM11.538 20.917v0.076c0 0.122-0.017 0.232-0.050 0.329-0.032 0.096-0.080 0.178-0.141 0.249l0.001-0.001c-0.060 0.068-0.132 0.119-0.216 0.155-0.079 0.034-0.171 0.054-0.267 0.054-0.003 0-0.007-0-0.010-0h0.001c-0.101 0-0.193-0.018-0.277-0.054-0.085-0.037-0.157-0.090-0.216-0.155l-0.001-0.001c-0.061-0.070-0.11-0.153-0.141-0.243l-0.002-0.005c-0.032-0.094-0.050-0.202-0.050-0.314 0-0.005 0-0.010 0-0.015v0.001-0.076c0-0.123 0.017-0.232 0.050-0.329s0.080-0.18 0.14-0.248c0.061-0.068 0.133-0.12 0.216-0.157 0.084-0.036 0.176-0.054 0.277-0.054s0.194 0.018 0.277 0.054c0.084 0.036 0.156 0.088 0.216 0.157s0.108 0.151 0.141 0.248c0.034 0.096 0.051 0.206 0.051 0.329zM11.204 20.994v-0.078c0-0.085-0.008-0.16-0.023-0.225-0.014-0.062-0.037-0.117-0.070-0.165l0.001 0.002c-0.028-0.042-0.065-0.075-0.109-0.098l-0.002-0.001c-0.042-0.022-0.091-0.034-0.143-0.034-0.002 0-0.004 0-0.006 0h0c-0.056 0-0.105 0.011-0.149 0.034-0.045 0.024-0.081 0.058-0.108 0.098l-0.001 0.001c-0.030 0.047-0.053 0.102-0.066 0.16l-0.001 0.003c-0.015 0.064-0.023 0.137-0.023 0.213 0 0.004 0 0.009 0 0.013v-0.001 0.078c0 0.084 0.008 0.159 0.023 0.225s0.038 0.12 0.068 0.165c0.030 0.044 0.067 0.078 0.11 0.101s0.093 0.034 0.149 0.034c0.056 0 0.105-0.011 0.149-0.034 0.045-0.024 0.082-0.058 0.108-0.099l0.001-0.001c0.029-0.045 0.052-0.1 0.067-0.165s0.023-0.14 0.023-0.225zM12.613 21.338c0-0.001 0-0.002 0-0.003 0-0.026-0.005-0.052-0.014-0.075l0.001 0.001c-0.010-0.026-0.026-0.048-0.046-0.064l-0-0c-0.028-0.023-0.059-0.042-0.093-0.057l-0.003-0.001c-0.043-0.020-0.096-0.040-0.15-0.057l-0.010-0.003c-0.085-0.027-0.153-0.054-0.22-0.084l0.013 0.005c-0.066-0.030-0.122-0.064-0.174-0.104l0.002 0.001c-0.047-0.038-0.086-0.084-0.116-0.135l-0.001-0.002c-0.027-0.051-0.042-0.111-0.042-0.174 0-0.003 0-0.006 0-0.008v0c0-0.067 0.015-0.128 0.044-0.182 0.029-0.055 0.071-0.102 0.123-0.141 0.053-0.040 0.116-0.070 0.187-0.091 0.073-0.021 0.153-0.032 0.239-0.032 0.119 0 0.222 0.021 0.31 0.064s0.157 0.101 0.205 0.175c0.049 0.075 0.074 0.159 0.074 0.255h-0.329c0-0.001 0-0.003 0-0.005 0-0.043-0.011-0.084-0.031-0.12l0.001 0.001c-0.020-0.037-0.050-0.066-0.087-0.085l-0.001-0.001c-0.040-0.019-0.086-0.031-0.136-0.031-0.004 0-0.009 0-0.013 0l0.001-0c-0.003-0-0.007-0-0.011-0-0.048 0-0.093 0.010-0.134 0.027l0.002-0.001c-0.036 0.015-0.065 0.038-0.086 0.069l-0 0.001c-0.018 0.027-0.029 0.059-0.029 0.095 0 0.001 0 0.002 0 0.002v-0c0 0.027 0.007 0.052 0.020 0.074 0.017 0.024 0.037 0.045 0.061 0.061l0.001 0c0.027 0.019 0.060 0.038 0.1 0.054s0.086 0.034 0.138 0.050c0.087 0.026 0.164 0.056 0.23 0.089 0.064 0.031 0.119 0.068 0.168 0.112l-0.001-0.001c0.045 0.041 0.079 0.088 0.102 0.14s0.034 0.111 0.034 0.178c0 0.005 0 0.010 0 0.015 0 0.128-0.062 0.241-0.158 0.311l-0.001 0.001c-0.051 0.038-0.113 0.067-0.184 0.087s-0.151 0.030-0.239 0.030c-0.084-0-0.165-0.012-0.241-0.033l0.006 0.002c-0.080-0.022-0.15-0.055-0.213-0.097l0.003 0.002c-0.062-0.043-0.112-0.097-0.149-0.161l-0.001-0.002c-0.038-0.066-0.056-0.145-0.056-0.235h0.332c0 0.050 0.008 0.092 0.023 0.127 0.015 0.034 0.037 0.062 0.064 0.084l0 0c0.029 0.021 0.063 0.037 0.1 0.046l0.002 0c0.040 0.009 0.083 0.014 0.13 0.014 0.003 0 0.007 0 0.011 0 0.047 0 0.091-0.009 0.132-0.026l-0.002 0.001c0.065-0.026 0.11-0.089 0.11-0.162 0-0.001 0-0.001 0-0.002v0zM13.886 20.152v1.606h-0.329v-1.606h0.329zM14.38 20.152v0.259h-1.31v-0.259h1.31zM15.646 21.499v0.258h-0.855v-0.258h0.855zM14.9 20.152v1.606h-0.331v-1.606h0.331zM15.535 20.806v0.251h-0.743v-0.251h0.743zM15.645 20.152v0.259h-0.853v-0.259h0.853zM15.84 20.152h0.599c0.123 0 0.229 0.019 0.317 0.055s0.157 0.091 0.205 0.163c0.048 0.072 0.072 0.161 0.072 0.266 0 0.086-0.014 0.16-0.044 0.221s-0.071 0.113-0.122 0.153l-0.001 0.001c-0.053 0.040-0.114 0.073-0.18 0.096l-0.004 0.001-0.105 0.055h-0.521l-0.002-0.258h0.387c0.003 0 0.007 0 0.011 0 0.049 0 0.095-0.011 0.135-0.032l-0.002 0.001c0.037-0.019 0.067-0.049 0.086-0.085l0.001-0.001c0.019-0.035 0.030-0.078 0.030-0.122 0-0.002-0-0.004-0-0.006v0c0-0.002 0-0.005 0-0.008 0-0.046-0.011-0.089-0.029-0.128l0.001 0.002c-0.019-0.037-0.049-0.067-0.086-0.085l-0.001-0c-0.040-0.019-0.087-0.030-0.136-0.030-0.004 0-0.007 0-0.011 0h-0.267v1.347h-0.331v-1.606zM16.738 21.758l-0.366-0.716 0.35-0.002 0.37 0.703v0.015h-0.354zM18.475 21.186h-0.409v-0.258h0.409c0.004 0 0.009 0 0.013 0 0.051 0 0.1-0.011 0.143-0.032l-0.002 0.001c0.038-0.020 0.068-0.050 0.087-0.087l0.001-0.001c0.017-0.038 0.027-0.083 0.027-0.13s-0.010-0.092-0.028-0.132l0.001 0.002c-0.019-0.042-0.049-0.076-0.086-0.099l-0.001-0.001c-0.041-0.024-0.090-0.038-0.142-0.038-0.004 0-0.008 0-0.013 0l0.001-0h-0.294v1.347h-0.331v-1.606h0.626c0.126 0 0.233 0.023 0.323 0.069s0.16 0.107 0.207 0.186 0.072 0.17 0.072 0.273c0 0.104-0.024 0.193-0.072 0.269s-0.117 0.134-0.207 0.175c-0.090 0.041-0.198 0.062-0.324 0.062zM20.383 21.499v0.258h-0.855v-0.258h0.855zM19.636 20.152v1.606h-0.331v-1.606h0.331zM20.271 20.806v0.251h-0.743v-0.251h0.743zM20.381 20.152v0.259h-0.853v-0.259h0.853zM21.316 20.152v1.606h-0.33v-1.606h0.33zM21.81 20.152v0.259h-1.31v-0.259h1.31zM23.076 21.499v0.258h-0.855v-0.258h0.855zM22.329 20.152v1.606h-0.331v-1.606h0.331zM22.965 20.806v0.251h-0.744v-0.251h0.744zM23.075 20.152v0.259h-0.854v-0.259h0.854zM23.269 20.152h0.599c0.123 0 0.229 0.019 0.316 0.055 0.089 0.037 0.158 0.091 0.206 0.163s0.072 0.161 0.072 0.266c0 0.086-0.015 0.16-0.044 0.221s-0.070 0.113-0.121 0.153l-0.001 0.001c-0.053 0.040-0.114 0.073-0.18 0.096l-0.004 0.001-0.105 0.055h-0.521l-0.002-0.258h0.387c0.003 0 0.007 0 0.011 0 0.049 0 0.095-0.011 0.135-0.032l-0.002 0.001c0.037-0.020 0.066-0.049 0.085-0.085l0.001-0.001c0.019-0.036 0.030-0.078 0.030-0.123 0-0.002-0-0.004-0-0.005v0c0-0.002 0-0.005 0-0.007 0-0.046-0.011-0.090-0.030-0.128l0.001 0.002c-0.019-0.037-0.049-0.067-0.086-0.085l-0.001-0c-0.040-0.019-0.087-0.030-0.136-0.030-0.004 0-0.007 0-0.011 0h-0.268v1.347h-0.331v-1.606zM24.167 21.758l-0.366-0.716 0.35-0.002 0.37 0.703v0.015h-0.354zM25.552 21.338c0-0.001 0-0.002 0-0.003 0-0.026-0.005-0.052-0.014-0.075l0 0.001c-0.010-0.026-0.026-0.047-0.046-0.064l-0-0c-0.028-0.023-0.059-0.042-0.093-0.057l-0.003-0.001c-0.043-0.020-0.096-0.040-0.15-0.057l-0.010-0.003c-0.085-0.027-0.153-0.054-0.22-0.084l0.013 0.005c-0.066-0.030-0.122-0.064-0.174-0.104l0.002 0.001c-0.047-0.038-0.086-0.084-0.116-0.135l-0.001-0.002c-0.027-0.051-0.042-0.111-0.042-0.174 0-0.003 0-0.006 0-0.008v0c0-0.067 0.015-0.128 0.044-0.182 0.030-0.055 0.071-0.102 0.124-0.141 0.053-0.040 0.115-0.070 0.187-0.091s0.152-0.032 0.239-0.032c0.119 0 0.222 0.021 0.31 0.064s0.157 0.101 0.205 0.175c0.049 0.075 0.074 0.159 0.074 0.255h-0.329c0-0.001 0-0.003 0-0.005 0-0.043-0.011-0.084-0.031-0.12l0.001 0.001c-0.020-0.037-0.050-0.066-0.087-0.085l-0.001-0.001c-0.040-0.019-0.086-0.031-0.136-0.031-0.004 0-0.008 0-0.013 0l0.001-0c-0.003-0-0.007-0-0.011-0-0.048 0-0.093 0.010-0.134 0.027l0.002-0.001c-0.036 0.015-0.065 0.038-0.086 0.069l-0 0.001c-0.018 0.027-0.029 0.059-0.029 0.095 0 0.001 0 0.002 0 0.002v-0c0 0.027 0.007 0.052 0.020 0.074 0.017 0.024 0.037 0.045 0.061 0.061l0.001 0c0.027 0.019 0.061 0.038 0.101 0.054s0.085 0.034 0.138 0.050c0.087 0.026 0.164 0.056 0.23 0.089 0.064 0.031 0.119 0.068 0.168 0.112l-0.001-0.001c0.045 0.041 0.079 0.088 0.102 0.14s0.034 0.111 0.034 0.178c0 0.070-0.013 0.132-0.041 0.187s-0.067 0.102-0.118 0.14c-0.052 0.038-0.113 0.067-0.184 0.087s-0.151 0.030-0.239 0.030c-0.079 0-0.158-0.011-0.235-0.031-0.080-0.022-0.15-0.055-0.213-0.097l0.003 0.002c-0.062-0.043-0.112-0.097-0.149-0.161l-0.001-0.002c-0.038-0.066-0.056-0.145-0.056-0.235h0.332c0 0.050 0.008 0.092 0.023 0.127 0.015 0.034 0.037 0.062 0.064 0.084l0 0c0.029 0.021 0.063 0.037 0.1 0.046l0.002 0c0.040 0.009 0.083 0.014 0.13 0.014 0.003 0 0.007 0 0.011 0 0.047 0 0.091-0.009 0.132-0.026l-0.002 0.001c0.065-0.026 0.11-0.089 0.11-0.162 0-0.001 0-0.001 0-0.002v0z"></path>
        </symbol>

        <symbol id="icon-grupoicon5" viewBox="0 0 32 32">
            <path d="M2.416 23.783c0.124 0.14 0.189 0.316 0.186 0.496 0.001 0.011 0.001 0.024 0.001 0.038 0 0.111-0.025 0.216-0.069 0.31l0.002-0.004c-0.053 0.113-0.129 0.208-0.221 0.282l-0.002 0.001c-0.21 0.145-0.471 0.231-0.751 0.231-0.031 0-0.061-0.001-0.092-0.003l0.004 0h-1.475v-3.144h1.445c0.026-0.002 0.055-0.003 0.085-0.003 0.266 0 0.513 0.079 0.72 0.214l-0.005-0.003c0.093 0.072 0.168 0.163 0.216 0.264 0.049 0.103 0.071 0.213 0.064 0.325 0.008 0.173-0.051 0.343-0.168 0.48-0.112 0.125-0.267 0.211-0.44 0.246 0.196 0.032 0.372 0.128 0.498 0.269zM0.686 23.308h0.618c0.14 0.009 0.279-0.028 0.393-0.105 0.045-0.037 0.081-0.084 0.104-0.137l0.001-0.002c0.018-0.041 0.029-0.088 0.029-0.138 0-0.011-0-0.021-0.001-0.031l0 0.001c0.001-0.008 0.001-0.017 0.001-0.027 0-0.051-0.011-0.099-0.030-0.143l0.001 0.002c-0.024-0.056-0.059-0.102-0.103-0.14l-0-0c-0.1-0.068-0.223-0.108-0.355-0.108-0.017 0-0.034 0.001-0.051 0.002l0.002-0h-0.608v0.825zM1.757 24.514c0.048-0.038 0.087-0.087 0.113-0.142l0.001-0.002c0.021-0.044 0.033-0.096 0.033-0.15 0-0.009-0-0.017-0.001-0.026l0 0.001c0-0.007 0.001-0.015 0.001-0.023 0-0.056-0.013-0.109-0.035-0.157l0.001 0.002c-0.028-0.058-0.067-0.106-0.115-0.144l-0.001-0.001c-0.106-0.072-0.237-0.115-0.378-0.115-0.014 0-0.029 0-0.043 0.001l0.002-0h-0.648v0.865h0.656c0.147 0.008 0.294-0.030 0.414-0.109zM5.369 25.135l-0.803-1.229h-0.302v1.229h-0.691v-3.145h1.309c0.028-0.002 0.060-0.003 0.093-0.003 0.308 0 0.593 0.102 0.822 0.273l-0.004-0.003c0.183 0.171 0.294 0.395 0.311 0.634 0.001 0.020 0.002 0.043 0.002 0.066 0 0.229-0.082 0.439-0.217 0.603l0.001-0.002c-0.162 0.167-0.377 0.282-0.618 0.319l-0.006 0.001 0.856 1.257h-0.752zM4.264 23.477h0.565c0.393 0 0.589-0.158 0.589-0.476 0-0.008 0.001-0.017 0.001-0.026 0-0.060-0.012-0.116-0.034-0.168l0.001 0.003c-0.027-0.064-0.065-0.118-0.112-0.162l-0-0c-0.107-0.081-0.243-0.13-0.39-0.13-0.019 0-0.038 0.001-0.057 0.002l0.002-0h-0.572l0.007 0.957zM9.148 24.502h-1.378l-0.243 0.633h-0.725l1.265-3.11h0.784l1.26 3.11h-0.724l-0.238-0.633zM8.964 24.025l-0.503-1.327-0.503 1.327h1.007zM13.878 25.135h-0.686l-1.539-2.138v2.138h-0.685v-3.145h0.685l1.539 2.151v-2.151h0.686v3.145zM17.795 24.382c-0.142 0.237-0.358 0.43-0.621 0.555-0.267 0.126-0.579 0.199-0.909 0.199-0.020 0-0.039-0-0.059-0.001l0.003 0h-1.221v-3.145h1.222c0.017-0 0.037-0.001 0.056-0.001 0.329 0 0.642 0.072 0.923 0.2l-0.014-0.006c0.263 0.122 0.479 0.313 0.621 0.549 0.141 0.256 0.215 0.538 0.215 0.825s-0.074 0.569-0.215 0.825zM17.009 24.307c0.186-0.195 0.301-0.459 0.303-0.75v-0c0-0.275-0.108-0.541-0.303-0.75-0.213-0.168-0.485-0.27-0.781-0.27-0.028 0-0.055 0.001-0.082 0.003l0.004-0h-0.476v2.036h0.476c0.024 0.002 0.051 0.002 0.079 0.002 0.296 0 0.568-0.102 0.783-0.272l-0.003 0.002zM9.578 4.497s8.857 3.062 8.67 7.492v7.495s-8.851-3.063-8.667-7.494l-0.003-7.493zM26.138 17.73c1.673-1.054 3.608-1.707 5.628-1.899v-2.346c-2.327 0.821-4.302 2.311-5.628 4.245z"></path>
            <path d="M25.134 18.436c1.369-2.524 3.742-4.472 6.633-5.443v-6.76s-12.615 4.361-12.348 10.671v10.67s0.562-0.195 1.447-0.561c0-0.341 0-0.685 0.041-1.031 0.261-2.929 1.781-5.643 4.228-7.546z"></path>
            <path d="M23.934 22.4c0.074-0.807 0.23-1.549 0.462-2.257l-0.020 0.072c-1.524 1.643-2.446 3.683-2.638 5.831-0.019 0.203-0.029 0.405-0.034 0.615 1.052-0.46 1.849-0.852 2.629-1.27l-0.203 0.1c-0.224-1.016-0.29-2.057-0.196-3.090zM24.436 22.439c-0.025 0.259-0.039 0.561-0.039 0.866 0 0.684 0.071 1.351 0.206 1.995l-0.011-0.063c3.446-1.889 7.319-4.806 7.17-8.332v-0.307c-2.462 0.252-4.766 1.238-6.557 2.805-0.395 0.888-0.668 1.918-0.765 2.998l-0.003 0.038z"></path>
        </symbol>

        <symbol id="icon-grupoicon6" viewBox="0 0 32 32">
            <path d="M16.145 15.658c-0.13-0.167-0.208-0.38-0.208-0.612 0-0.023 0.001-0.046 0.002-0.068l-0 0.003v-0.982c0-0.301 0.068-0.529 0.205-0.686s0.371-0.234 0.703-0.234c0.312 0 0.534 0.067 0.665 0.2 0.143 0.17 0.213 0.378 0.197 0.587v0.231h-0.558v-0.234c0.002-0.076-0.003-0.153-0.016-0.228-0.010-0.055-0.039-0.103-0.080-0.136l-0-0c-0.050-0.034-0.112-0.054-0.178-0.054-0.008 0-0.017 0-0.025 0.001l0.001-0c-0.007-0.001-0.016-0.001-0.024-0.001-0.070 0-0.136 0.021-0.19 0.057l0.001-0.001c-0.046 0.037-0.079 0.089-0.092 0.148l-0 0.002c-0.014 0.067-0.022 0.145-0.022 0.224 0 0.007 0 0.013 0 0.020v-0.001 1.191c-0.009 0.115 0.016 0.23 0.072 0.334 0.029 0.036 0.067 0.064 0.11 0.080l0.002 0.001c0.045 0.018 0.095 0.024 0.144 0.019 0.007 0.001 0.015 0.001 0.023 0.001 0.065 0 0.125-0.020 0.175-0.055l-0.001 0.001c0.043-0.036 0.073-0.086 0.083-0.143l0-0.001c0.011-0.064 0.018-0.139 0.018-0.214 0-0.009-0-0.017-0-0.026l0 0.001v-0.242h0.559v0.221c0.001 0.017 0.002 0.038 0.002 0.058 0 0.212-0.073 0.407-0.196 0.561l0.001-0.002c-0.128 0.146-0.347 0.219-0.669 0.219s-0.564-0.078-0.702-0.24zM18.47 15.668c-0.141-0.152-0.212-0.375-0.212-0.67v-1.032c0-0.292 0.070-0.512 0.212-0.662s0.377-0.224 0.708-0.224c0.328 0 0.563 0.075 0.704 0.224 0.141 0.15 0.213 0.37 0.213 0.662v1.032c0 0.292-0.072 0.515-0.215 0.669s-0.377 0.23-0.702 0.23-0.565-0.078-0.708-0.23zM19.438 15.42c0.051-0.096 0.074-0.2 0.067-0.305v-1.264c0.001-0.010 0.001-0.022 0.001-0.034 0-0.097-0.025-0.189-0.068-0.268l0.001 0.003c-0.030-0.037-0.068-0.065-0.112-0.081l-0.002-0.001c-0.032-0.013-0.070-0.020-0.109-0.020-0.013 0-0.027 0.001-0.040 0.002l0.002-0c-0.011-0.001-0.024-0.002-0.038-0.002-0.040 0-0.077 0.007-0.112 0.021l0.002-0.001c-0.046 0.017-0.085 0.046-0.114 0.082l-0 0.001c-0.051 0.093-0.074 0.196-0.067 0.3v1.27c-0.007 0.105 0.016 0.21 0.067 0.306 0.032 0.032 0.073 0.058 0.118 0.076 0.043 0.017 0.092 0.027 0.143 0.027s0.101-0.010 0.146-0.028l-0.003 0.001c0.046-0.018 0.085-0.044 0.118-0.076l-0 0v-0.006zM20.767 13.11h0.601l0.452 1.905 0.463-1.905h0.585l0.059 2.749h-0.433l-0.046-1.911-0.446 1.911h-0.347l-0.462-1.918-0.043 1.918h-0.437l0.054-2.749zM23.602 13.11h0.937c0.54 0 0.81 0.26 0.81 0.781 0 0.498-0.284 0.748-0.852 0.747h-0.319v1.222h-0.578l0.003-2.75zM24.402 14.285c0.057 0.006 0.115 0.002 0.17-0.013s0.106-0.040 0.148-0.074c0.066-0.093 0.096-0.202 0.083-0.31 0-0.009 0.001-0.020 0.001-0.030 0-0.078-0.010-0.153-0.030-0.225l0.001 0.006c-0.009-0.029-0.024-0.055-0.043-0.076l0 0c-0.020-0.023-0.044-0.041-0.071-0.055l-0.001-0.001c-0.067-0.028-0.146-0.045-0.228-0.045-0.011 0-0.021 0-0.032 0.001l0.001-0h-0.224v0.822h0.225zM26.182 13.11h0.621l0.637 2.75h-0.539l-0.126-0.634h-0.554l-0.129 0.634h-0.547l0.637-2.749zM26.713 14.907l-0.216-1.154-0.216 1.154h0.432zM27.955 13.11h0.405l0.774 1.569v-1.569h0.48v2.749h-0.385l-0.78-1.637v1.637h-0.496l0.001-2.749zM30.738 14.811l-0.644-1.697h0.543l0.393 1.090 0.369-1.090h0.531l-0.636 1.697v1.049h-0.555v-1.049zM17.038 17.062v0.144h-0.472v1.117h-0.198v-1.118h-0.474v-0.144h1.144zM18.517 18.323h-0.153c-0.001 0-0.003 0-0.004 0-0.014 0-0.028-0.005-0.039-0.012l0 0c-0.011-0.007-0.020-0.017-0.025-0.029l-0-0-0.137-0.3h-0.655l-0.136 0.3c-0.004 0.013-0.012 0.025-0.021 0.034l-0 0c-0.011 0.008-0.025 0.012-0.039 0.012-0.001 0-0.003-0-0.004-0h-0.152l0.578-1.261h0.201l0.586 1.256zM17.559 17.855h0.546l-0.232-0.513c-0.015-0.032-0.029-0.072-0.041-0.112l-0.002-0.006c-0.008 0.024-0.015 0.047-0.022 0.067l-0.021 0.053-0.229 0.512zM19.514 18.199c0.036 0.001 0.073 0.001 0.109 0 0.031-0.003 0.062-0.008 0.092-0.015 0.028-0.006 0.056-0.014 0.083-0.023 0.026-0.009 0.051-0.020 0.077-0.031v-0.284h-0.231c-0.001 0-0.001 0-0.002 0-0.011 0-0.021-0.004-0.030-0.010l0 0c-0.004-0.003-0.007-0.006-0.009-0.010l-0-0c-0.002-0.003-0.003-0.007-0.003-0.011 0-0 0-0.001 0-0.001v0-0.097h0.449v0.483c-0.070 0.044-0.151 0.079-0.238 0.101l-0.006 0.001c-0.048 0.012-0.096 0.021-0.145 0.026s-0.107 0.008-0.166 0.008c-0.001 0-0.002 0-0.003 0h0c-0.002 0-0.005 0-0.007 0-0.102 0-0.2-0.017-0.29-0.049l0.006 0.002c-0.089-0.031-0.166-0.076-0.232-0.133l0.001 0.001c-0.062-0.055-0.112-0.121-0.148-0.196l-0.002-0.004c-0.034-0.075-0.053-0.162-0.053-0.253 0-0.003 0-0.006 0-0.009v0c-0-0.002-0-0.005-0-0.008 0-0.092 0.019-0.18 0.054-0.26l-0.002 0.004c0.033-0.075 0.084-0.143 0.149-0.2 0.066-0.057 0.145-0.101 0.232-0.131 0.099-0.032 0.204-0.048 0.31-0.047 0.054 0 0.108 0.003 0.161 0.011 0.047 0.007 0.093 0.017 0.138 0.032 0.041 0.013 0.079 0.030 0.116 0.050 0.035 0.020 0.069 0.042 0.101 0.066l-0.055 0.078c-0.005 0.007-0.011 0.013-0.018 0.017l-0 0c-0.008 0.004-0.017 0.007-0.026 0.007h-0c-0.013-0-0.025-0.004-0.036-0.010l0 0c-0.023-0.011-0.042-0.021-0.060-0.032l0.003 0.002c-0.022-0.012-0.047-0.024-0.074-0.033l-0.004-0.001c-0.029-0.011-0.065-0.020-0.102-0.027l-0.005-0.001c-0.042-0.007-0.090-0.011-0.139-0.011-0.003 0-0.005 0-0.008 0h0c-0.002-0-0.005-0-0.008-0-0.077 0-0.151 0.013-0.22 0.036l0.005-0.001c-0.064 0.022-0.123 0.056-0.17 0.1-0.046 0.043-0.082 0.095-0.106 0.154l-0.001 0.003c-0.025 0.062-0.039 0.135-0.039 0.21s0.014 0.148 0.040 0.214l-0.001-0.004c0.025 0.059 0.065 0.113 0.116 0.159 0.047 0.043 0.105 0.077 0.169 0.1 0.074 0.022 0.151 0.030 0.229 0.025zM21.357 18.179h0.631v0.144h-0.824v-1.261h0.197l-0.004 1.117zM22.645 18.323h-0.197v-1.261h0.197v1.261zM23.381 17.068c0.012 0.006 0.022 0.014 0.030 0.023l0 0 0.845 0.95c-0.001-0.007-0.001-0.015-0.001-0.022s0-0.016 0.001-0.023l-0 0.001v-0.94h0.172v1.266h-0.099c-0.002 0-0.004 0-0.006 0-0.013 0-0.026-0.003-0.038-0.008l0.001 0c-0.012-0.006-0.022-0.014-0.031-0.024l-0-0-0.844-0.95v0.981h-0.165v-1.261h0.103c0.011 0 0.022 0.002 0.032 0.006zM25.885 17.062v0.139h-0.701v0.416h0.568v0.134h-0.568v0.43h0.701v0.139h-0.904v-1.258h0.904zM5.162 9.274l8.781 2.153v7.543l-8.781-2.151v-7.545zM4.598 8.631v8.554l9.906 2.429v-8.553l-9.906-2.43z"></path>
            <path d="M9.908 23.585l-9.908-2.432v-8.553l9.908 2.43v8.554z"></path>
            <path d="M4.763 9.177l8.667 2.126-3.685 3.183-8.668-2.127 3.687-3.182zM4.598 8.631l-4.598 3.969 9.908 2.431 4.597-3.97-9.906-2.43zM10.465 23.103l4.040-3.489-4.040-0.991v4.48z"></path>
        </symbol>

        <symbol id="icon-in" viewBox="0 0 32 32">
            <path d="M7.102 12.787h3.601v12.097h-3.601v-12.097zM8.881 6.653c1.203 0 2.177 0.975 2.177 2.177s-0.975 2.177-2.177 2.177c-1.203 0-2.135-0.982-2.135-2.177s0.932-2.177 2.135-2.177zM12.837 12.787h3.558v1.694c0.768-1.139 2.049-1.829 3.423-1.822h0.982c2.256 0.007 4.085 1.836 4.092 4.092v8.141h-3.558v-6.539c-0.043-1.38-0.982-2.448-2.355-2.448-1.38 0-2.533 1.067-2.583 2.448v6.539h-3.558v-12.104z"></path>
        </symbol>

        <symbol id="icon-instagram" viewBox="0 0 32 32">
            <path d="M11.293 5.807c-3.017 0-5.508 2.491-5.508 5.515v9.357c0 3.017 2.483 5.508 5.508 5.508h9.414c3.017 0 5.508-2.483 5.508-5.508v-9.364c0-3.017-2.483-5.508-5.508-5.508h-9.414zM21.483 9.364h-0.028c-0.64 0.007-1.146 0.527-1.139 1.167v0.028c0.007 0.633 0.527 1.146 1.167 1.139 0.648-0.007 1.167-0.527 1.174-1.167-0.014-0.64-0.534-1.16-1.174-1.167zM15.975 10.439c-3.017 0-5.508 2.54-5.508 5.557 0 3.067 2.483 5.557 5.508 5.557h0.050c3.024 0 5.557-2.483 5.557-5.557 0-3.024-2.533-5.557-5.557-5.557h-0.050zM15.975 12.339h0.050c2 0 3.658 1.658 3.658 3.658 0 2.049-1.658 3.707-3.658 3.707h-0.050c-2 0-3.658-1.658-3.658-3.707 0-2 1.658-3.658 3.658-3.658zM11.343 7.564h9.315c2.099 0 3.8 1.701 3.807 3.8v9.272c0 2.099-1.708 3.8-3.807 3.807h-9.315c-2.099-0.007-3.8-1.708-3.8-3.807v-9.272c0-2.099 1.701-3.8 3.8-3.8z"></path>
        </symbol>

        <symbol id="icon-mail" viewBox="0 0 32 32">
            <path d="M29 4h-26c-1.654 0-3 1.346-3 3v18c0 1.654 1.346 3 3 3h26c1.654 0 3-1.346 3-3v-18c0-1.654-1.346-3-3-3zM29 6c0.136 0 0.266 0.028 0.384 0.078l-13.384 11.6-13.384-11.6c0.113-0.049 0.245-0.078 0.384-0.078h26zM29 26h-26c-0.552 0-1-0.448-1-1v0-16.81l13.344 11.566c0.175 0.152 0.404 0.245 0.656 0.245s0.481-0.093 0.657-0.246l-0.001 0.001 13.344-11.566v16.81c0 0.552-0.448 1-1 1v0z"></path>
        </symbol>

        <symbol id="icon-phone" viewBox="0 0 32 32">
            <path d="M23 0h-14c-1.654 0-3 1.346-3 3v26c0 1.654 1.346 3 3 3h14c1.654 0 3-1.346 3-3v-26c0-1.654-1.346-3-3-3zM9 2h14c0.552 0 1 0.448 1 1v0 21h-16v-21c0-0.552 0.448-1 1-1v0zM23 30h-14c-0.552 0-1-0.448-1-1v0-3h16v3c0 0.552-0.448 1-1 1v0z"></path>
        </symbol>

        <symbol id="icon-twitter" viewBox="0 0 32 32">
            <path d="M16.174 13.157c-0.79-4.149 4.205-6.625 7.144-3.629 0 0 1.316-0.37 2.469-1.103-0.342 0.954-0.989 1.765-1.843 2.313 0 0 1.58-0.206 2.263-0.633 0 0-0.683 1.416-1.943 1.943 0.69 9.514-9.564 15.299-17.861 10.567 0 0 4.099 0.213 5.835-1.786 0 0-2.519 0.213-3.786-2.839 0 0 0.946 0.37 1.893-0.107 0 0-2.946-0.47-3.202-3.992 0 0 0.946 0.733 2 0.47 0 0-3.259-1.943-1.423-5.465 0 0.007 3.465 4.419 8.454 4.262z"></path>
        </symbol>

        <symbol id="icon-vector_astro" viewBox="0 0 32 32">
            <path d="M29.935 13.626c-0.321-0.432-0.802-0.73-1.353-0.807l-0.011-0.001c-0.088-0.013-0.189-0.021-0.291-0.021-0.471 0-0.905 0.16-1.25 0.428l0.005-0.003-1.438 1.101-2.178 1.626-1.558-0.621c2.778-1.246 4.72-4.026 4.72-7.252 0-4.387-3.583-7.956-7.988-7.956s-7.988 3.57-7.988 7.957c0 1.59 0.476 3.069 1.285 4.313l-3.177-0.028c-0.010 0-0.018 0.005-0.027 0.005-0.065 0.003-0.126 0.016-0.182 0.038l0.004-0.001c-0.015 0.005-0.030 0.008-0.044 0.015-0.007 0.003-0.015 0.004-0.022 0.007l-3.71 1.831c-0.001 0-0.002 0-0.002 0.001l-2.172 1.044c-0.028 0.013-0.052 0.026-0.074 0.041l0.002-0.001c-0.553 0.371-0.912 0.995-0.912 1.702 0 0.341 0.083 0.662 0.231 0.944l-0.005-0.011c0.252 0.486 0.68 0.852 1.197 1.016l0.014 0.004c0.184 0.061 0.396 0.095 0.617 0.095 0.354 0 0.686-0.090 0.976-0.248l-0.011 0.005 1.593-0.847 2.598-1.342 1.557-0.009-6.245 6.214c0 0.001-0.001 0.001-0.002 0.002l-1.537 1.53c-0.347 0.343-0.562 0.82-0.562 1.346 0 0.002 0 0.004 0 0.006v-0c0 0.51 0.199 0.99 0.562 1.352 0.346 0.344 0.823 0.557 1.35 0.557 0.001 0 0.003 0 0.004 0h-0c0.491 0 0.98-0.186 1.354-0.557l1.508-1.502 1.998-1.491 1.033 1.029-3.559 3.544c-0.348 0.343-0.563 0.82-0.563 1.347 0 0.002 0 0.003 0 0.005v-0c0 0.51 0.199 0.991 0.563 1.353 0.346 0.344 0.823 0.557 1.35 0.557 0.001 0 0.003 0 0.004 0h-0c0.491 0 0.981-0.186 1.354-0.557l5.15-5.132c0.008-0.007 0.018-0.010 0.026-0.018l5.928-6.493 3.983 0.567c0.029 0.004 0.058 0.006 0.086 0.006 0.075 0 0.146-0.018 0.215-0.044 0.020-0.007 0.038-0.017 0.057-0.027 0.022-0.011 0.045-0.017 0.066-0.031l3.687-2.448c0.014-0.009 0.021-0.024 0.034-0.034 0.015-0.012 0.033-0.016 0.047-0.029l1.458-1.367c0.399-0.374 0.647-0.904 0.647-1.492 0-0.459-0.152-0.883-0.407-1.224l0.004 0.005zM4.018 17.769c-0.113 0.062-0.247 0.099-0.39 0.099-0.090 0-0.176-0.014-0.257-0.041l0.006 0.002c-0.338-0.107-0.578-0.418-0.578-0.784 0-0.27 0.131-0.51 0.332-0.659l0.002-0.002 1.508-0.726 0.363 1.061 0.152 0.446-1.138 0.605zM8.031 15.672l-1.777 0.918-0.293-0.857-0.211-0.616 2.326-1.148-0.046 1.703zM25.359 8.075c0 1.054-0.252 2.048-0.687 2.937l-4.798-2.18c-0.050-0.66-0.393-1.231-0.898-1.588l-0.007-0.004 1.679-5.578c2.729 0.868 4.711 3.413 4.711 6.413zM11.831 8.075c0-3.712 3.034-6.733 6.764-6.733 0.29 0 0.574 0.025 0.855 0.060l-1.644 5.454c-0.022 0-0.043-0.006-0.066-0.006-0 0-0.001 0-0.001 0-1.184 0-2.144 0.958-2.148 2.142v0c0.003 1.184 0.964 2.142 2.148 2.142 0 0 0.001 0 0.001 0h-0c0.797 0 1.486-0.44 1.857-1.084l4.433 2.013c-1.234 1.66-3.207 2.743-5.436 2.743-3.73 0-6.764-3.021-6.764-6.733zM18.666 8.993c0 0.506-0.415 0.918-0.925 0.918-0 0-0.001 0-0.002 0-0.508 0-0.92-0.41-0.923-0.918v-0c0-0.506 0.414-0.918 0.924-0.918s0.925 0.412 0.925 0.918zM4.402 26.233c-0.126 0.125-0.3 0.202-0.491 0.202s-0.364-0.077-0.49-0.201l0 0c-0.125-0.124-0.202-0.295-0.202-0.484s0.077-0.361 0.202-0.484l0-0 1.104-1.1 0.978 0.973-1.1 1.095zM8.090 30.517c-0.126 0.125-0.3 0.202-0.491 0.202s-0.364-0.077-0.49-0.201l0 0c-0.125-0.124-0.202-0.295-0.202-0.484s0.077-0.361 0.202-0.484l0-0 1.105-1.101 0.977 0.973-1.101 1.096zM12.085 26.537l-0.002 0.002-2.025 2.020-0.978-0.973 2.025-2.016c0.046-0.046 0.075-0.101 0.103-0.156 0.008-0.016 0.023-0.029 0.030-0.046 0.019-0.047 0.022-0.098 0.029-0.147 0.004-0.028 0.016-0.055 0.016-0.084 0-0.040-0.015-0.080-0.023-0.121-0.007-0.037-0.007-0.074-0.021-0.11-0.028-0.061-0.063-0.113-0.105-0.158l0 0c-0.012-0.014-0.016-0.030-0.028-0.044h-0.001s0-0.002-0.001-0.003l-1.844-1.836c-0.019-0.019-0.045-0.027-0.067-0.044-0.029-0.024-0.062-0.046-0.097-0.065l-0.003-0.002c-0.030-0.014-0.066-0.027-0.104-0.036l-0.004-0.001c-0.034-0.011-0.074-0.019-0.116-0.023l-0.002-0c-0.008-0-0.017-0.001-0.026-0.001-0.029 0-0.058 0.002-0.087 0.006l0.003-0c-0.041 0.005-0.079 0.011-0.119 0.024-0.039 0.012-0.073 0.031-0.109 0.051-0.023 0.013-0.048 0.017-0.070 0.033l-2.035 1.519-1.033-1.030 2.753-2.738 5.005 4.922-1.065 1.054zM19.91 18.485c-0.017-0.003-0.034 0.004-0.052 0.003-0.009-0-0.020-0.001-0.031-0.001-0.036 0-0.071 0.003-0.105 0.009l0.004-0.001c-0.035 0.006-0.068 0.013-0.101 0.025-0.042 0.015-0.079 0.033-0.113 0.055l0.002-0.001c-0.036 0.022-0.067 0.045-0.096 0.071l0-0c-0.015 0.013-0.033 0.019-0.046 0.034l-5.391 5.905-4.967-4.884 3.251-3.234c0.111-0.111 0.179-0.264 0.179-0.433 0-0.338-0.274-0.613-0.613-0.613-0.001 0-0.001 0-0.002 0h0l-2.546 0.015 0.032-1.844 3.562 0.030c1.45 1.488 3.474 2.411 5.713 2.411 0.001 0 0.003 0 0.004 0h-0c0.502 0 0.991-0.052 1.468-0.141 0.046 0.037 0.091 0.073 0.148 0.097l2.766 1.102 0.175 0.87 0.205 1.016-3.446-0.491zM24.547 18.69l-0.359-1.788 1.66-1.24 1.086 1.442-2.387 1.585zM28.855 15.441l-0.962 0.901-1.069-1.418 0.954-0.731c0.178-0.137 0.403-0.193 0.623-0.164 0.221 0.031 0.418 0.147 0.551 0.326 0.101 0.135 0.162 0.304 0.162 0.489 0 0.236-0.1 0.448-0.259 0.598l-0 0z"></path>
        </symbol>

        <symbol id="icon-vector_comp" viewBox="0 0 32 32">
            <path fill="#2196f3" style="fill:#2196f3" d="M14.926 14.965h1.066v4.798h-1.066v-4.798zM19.19 17.097h1.066v2.665h-1.066v-2.665zM10.661 18.696h1.066v1.066h-1.066v-1.066zM7.463 18.163h1.066v1.599h-1.066v-1.599z"></path>
            <path d="M1.599 28.291h25.586c0 0 0 0 0 0 0.883 0 1.599-0.716 1.599-1.599v0-2.132c0-0.883-0.716-1.599-1.599-1.599v0h-0.533v-13.294l3.028-2.868c0.207 0.104 0.452 0.166 0.711 0.166 0.888 0 1.608-0.72 1.608-1.608s-0.72-1.608-1.608-1.608c-0.888 0-1.608 0.72-1.608 1.608 0 0.247 0.056 0.481 0.155 0.69l-0.004-0.010-2.281 2.162v-1.23c0-0.883-0.716-1.599-1.599-1.599v0h-21.323c-0.883 0-1.599 0.716-1.599 1.599v0 15.992h-0.533c-0.883 0-1.599 0.716-1.599 1.599v0 2.132c0 0.883 0.716 1.599 1.599 1.599v0zM30.384 4.837c0.294 0 0.533 0.239 0.533 0.533s-0.239 0.533-0.533 0.533v0c-0.294 0-0.533-0.239-0.533-0.533s0.239-0.533 0.533-0.533v0zM3.198 6.969c0-0.294 0.239-0.533 0.533-0.533h21.323c0.294 0 0.533 0.239 0.533 0.533v2.239l-1.066 1.013v-2.185c0-0.295-0.239-0.534-0.534-0.534h-19.189c-0.294 0-0.534 0.239-0.534 0.533v13.327c0 0.294 0.239 0.533 0.534 0.533h19.189c0.295 0 0.534-0.239 0.534-0.533v-9.675l1.066-1.010v12.283h-22.389v-15.991zM7.996 13.899c-0.001 0-0.003 0-0.005 0-0.883 0-1.599 0.716-1.599 1.599s0.716 1.599 1.599 1.599c0.432 0 0.824-0.172 1.112-0.45l-0 0 1.853 0.93c0.215 0.107 0.476 0.057 0.636-0.122l3.939-4.432 3.872 2.902c0.208 0.155 0.498 0.139 0.686-0.039l3.365-3.188v8.131h-18.123v-12.261h18.123v2.661l-3.771 3.572-3.904-2.927c-0.088-0.067-0.2-0.107-0.32-0.107-0.158 0-0.3 0.069-0.398 0.178l-0 0.001-3.993 4.493-1.493-0.746c0.011-0.064 0.017-0.128 0.020-0.193 0-0.883-0.716-1.599-1.599-1.599v0zM8.529 15.498c0 0.294-0.239 0.533-0.533 0.533s-0.533-0.239-0.533-0.533v0c0-0.294 0.239-0.533 0.533-0.533s0.533 0.239 0.533 0.533v0zM11.727 24.026h5.33v0.533c0 0.294-0.238 0.533-0.533 0.533h-4.265c-0.294 0-0.533-0.239-0.533-0.533v0-0.533zM1.067 24.56c0-0.294 0.238-0.533 0.533-0.533h9.062v0.533c0 0.883 0.716 1.599 1.599 1.599v0h4.265c0.883 0 1.599-0.716 1.599-1.599v0-0.533h9.062c0.294 0 0.533 0.239 0.533 0.533v2.132c0 0.294-0.239 0.533-0.533 0.533h-25.586c-0 0-0 0-0 0-0.294 0-0.533-0.239-0.533-0.533 0 0 0 0 0 0v0-2.132z"></path>
        </symbol>

        <symbol id="icon-vector_reloj" viewBox="0 0 32 32">
            <path d="M31.296 15.301c-0.001-8.452-6.855-15.303-15.308-15.301s-15.303 6.855-15.301 15.308c0.002 6.788 4.422 12.543 10.541 14.545l0.108 0.031c0.061 0.019 0.123 0.029 0.187 0.029 0.12 0 0.238-0.032 0.342-0.094 0.135-0.080 0.236-0.207 0.283-0.357l3.865-12.25c1.054-0.004 1.906-0.859 1.906-1.913 0-1.056-0.856-1.913-1.913-1.913-0.303 0-0.59 0.071-0.845 0.196l0.011-0.005-5.106-5.107c-0.114-0.11-0.271-0.179-0.443-0.179-0.352 0-0.638 0.286-0.638 0.638 0 0.172 0.068 0.328 0.179 0.443l-0-0 5.103 5.109c-0.121 0.241-0.191 0.525-0.191 0.825 0 0.602 0.283 1.137 0.724 1.481l0.004 0.003-3.683 11.673c-7.278-2.681-11.004-10.754-8.324-18.032s10.754-11.004 18.032-8.323c7.278 2.681 11.004 10.754 8.323 18.032-1.345 3.581-4.003 6.406-7.374 7.938l-0.088 0.036-0.398-1.874c-0.063-0.291-0.318-0.506-0.624-0.506-0.164 0-0.313 0.062-0.426 0.163l0.001-0.001-3.837 3.426c-0.132 0.117-0.214 0.287-0.214 0.477 0 0.283 0.185 0.524 0.441 0.606l0.005 0.001 4.899 1.563c0.058 0.020 0.126 0.031 0.196 0.031 0.352 0 0.637-0.285 0.637-0.637 0-0.047-0.005-0.093-0.015-0.138l0.001 0.004-0.391-1.839c5.528-2.374 9.329-7.772 9.329-14.057 0-0.011 0-0.023-0-0.034v0.002zM15.992 14.664c0.352 0 0.638 0.286 0.638 0.638s-0.285 0.638-0.638 0.638v0c-0.352 0-0.638-0.286-0.638-0.638s0.286-0.638 0.638-0.638v0zM18.092 29.528l2.184-1.948 0.603 2.84-2.787-0.892z"></path>
        </symbol>

        <symbol id="icon-vector_satelite" viewBox="0 0 32 32">
            <path d="M30.773 22.098l-8.443-8.505 0.937-4.616c0.225 0.090 0.485 0.144 0.758 0.146h0.007c0.008 0 0.017 0 0.026 0 1.192 0 2.159-0.967 2.159-2.159s-0.967-2.159-2.159-2.159c-1.192 0-2.159 0.967-2.159 2.159 0 0.259 0.046 0.508 0.13 0.739l-0.005-0.015-4.96 0.606-8.091-8.133c-0.096-0.098-0.229-0.159-0.376-0.16h-0c-0.14 0.001-0.274 0.057-0.373 0.155l-1.512 1.504c-0.096 0.097-0.156 0.23-0.156 0.377s0.060 0.281 0.156 0.377v0l0.814 0.825c-1.143 2.062-1.816 4.522-1.816 7.139 0 4.106 1.656 7.824 4.336 10.525l-0.001-0.001c0.043 0.041 0.092 0.074 0.146 0.097-0.032 0.164-0.051 0.353-0.052 0.546v6.188h-6.4c-1.472 0.001-2.666 1.194-2.667 2.666v1.067c0 0.295 0.239 0.534 0.534 0.534h24.534c0.294 0 0.533-0.239 0.533-0.534v-1.067c-0.002-1.472-1.195-2.665-2.666-2.666h-6.4v-2.742c1.003 0.21 2.024 0.317 3.049 0.32 2.58-0.003 5.005-0.663 7.117-1.822l-0.077 0.039 0.818 0.823c0.099 0.101 0.235 0.159 0.376 0.16 0.14-0.001 0.274-0.057 0.373-0.155l1.512-1.504c0.096-0.097 0.156-0.23 0.156-0.377s-0.060-0.281-0.156-0.377v0zM23.28 6.233c0.193-0.192 0.459-0.31 0.752-0.31 0.589 0 1.067 0.478 1.067 1.066s-0.477 1.066-1.067 1.066c-0 0-0 0-0 0h-0.004c-0.587-0.003-1.061-0.479-1.061-1.066 0-0.295 0.12-0.563 0.314-0.756l0-0h-0.002zM22.024 9.737l-0.598 2.946-1.175-1.183 1.774-1.763zM21.419 8.835l-1.92 1.909-1.486-1.493 3.406-0.416zM24.004 28.8c0.884 0 1.6 0.716 1.6 1.6v0 0.534h-23.466v-0.534c0-0.884 0.716-1.6 1.6-1.6v0h20.267zM16.538 26.666v1.067h-5.334v-1.067h5.334zM11.204 25.6v-4.053c0-1.294 1.196-2.346 2.667-2.346s2.667 1.053 2.667 2.346v4.053h-5.334zM17.604 23.904v-2.357c0-1.882-1.675-3.413-3.733-3.413-0.017-0-0.038-0-0.058-0-1.353 0-2.54 0.707-3.213 1.771l-0.009 0.016c-2.36-2.482-3.812-5.846-3.812-9.55 0-2.314 0.567-4.496 1.569-6.414l-0.036 0.077 18.602 18.709c-1.823 0.947-3.979 1.502-6.266 1.502-1.079 0-2.128-0.124-3.136-0.357l0.093 0.018zM28.893 23.22l-21.057-21.181 0.754-0.752 7.935 7.98c0.004 0 0.006 0.007 0.010 0.010l13.114 13.191-0.757 0.752z"></path>
        </symbol>

        <symbol id="icon-cerrarExit-1" viewBox="0 0 32 32">
            <path fill="transparent" style="fill: #fff" d="M32 16c0 8.837-7.163 16-16 16s-16-7.163-16-16c0-8.837 7.163-16 16-16s16 7.163 16 16z"></path>
            <path fill="none" stroke="#000" style="stroke: rgba(0, 0, 0, 0.1)" stroke-linejoin="miter" stroke-linecap="butt" stroke-miterlimit="4" stroke-width="1" d="M31.467 16c0 8.542-6.925 15.467-15.467 15.467s-15.467-6.925-15.467-15.467c0-8.542 6.925-15.467 15.467-15.467s15.467 6.925 15.467 15.467z"></path>
            <path d="M22.4 10.782l-1.182-1.182-4.685 4.685-4.685-4.685-1.182 1.182 4.685 4.685-4.685 4.685 1.182 1.182 4.685-4.685 4.685 4.685 1.182-1.182-4.685-4.685 4.685-4.685z"></path>
        </symbol>

        <symbol id="icon-correo-electrnico1" viewBox="0 0 32 32">
            <path d="M26.667 5.333h-21.333c-1.467 0-2.652 1.2-2.652 2.667l-0.014 16c0 1.467 1.2 2.667 2.667 2.667h21.333c1.467 0 2.667-1.2 2.667-2.667v-16c0-1.467-1.2-2.667-2.667-2.667zM26.133 11.001l-9.426 5.892c-0.201 0.126-0.446 0.2-0.708 0.2s-0.506-0.075-0.713-0.204l0.006 0.003-9.426-5.892c-0.336-0.201-0.557-0.562-0.557-0.975 0-0.625 0.507-1.132 1.132-1.132 0.233 0 0.449 0.070 0.629 0.19l-0.004-0.003 8.933 5.586 8.933-5.588c0.176-0.118 0.392-0.188 0.624-0.188 0.625 0 1.132 0.507 1.132 1.132 0 0.413-0.221 0.775-0.552 0.972l-0.005 0.003z"></path>
        </symbol>

        <symbol id="icon-persona1" viewBox="0 0 32 32">
            <path d="M16 16c2.946 0 5.333-2.388 5.333-5.333s-2.388-5.333-5.333-5.333v0c-2.946 0-5.333 2.388-5.333 5.333s2.388 5.333 5.333 5.333v0zM16 18.667c-3.561 0-10.667 1.787-10.667 5.333v1.333c0 0.732 0.599 1.333 1.333 1.333h18.667c0.732 0 1.333-0.601 1.333-1.333v-1.333c0-3.547-7.108-5.333-10.667-5.333z"></path>
        </symbol>

        <symbol id="icon-telephone-1" viewBox="0 0 32 32">
            <path d="M24.882 19.774l-3.268-0.373c-0.090-0.011-0.194-0.018-0.3-0.018-0.707 0-1.347 0.287-1.81 0.75l-2.368 2.368c-3.669-1.894-6.585-4.81-8.427-8.372l-0.051-0.108 2.382-2.377c0.463-0.463 0.75-1.103 0.75-1.81 0-0.106-0.006-0.21-0.019-0.312l0.001 0.012-0.373-3.243c-0.155-1.287-1.24-2.276-2.557-2.276-0.001 0-0.002 0-0.003 0h-2.226c-1.454 0-2.663 1.209-2.574 2.661 0.683 10.987 9.47 19.762 20.444 20.444 1.452 0.089 2.663-1.12 2.663-2.574v-2.226c0-0.004 0-0.008 0-0.012 0-1.308-0.985-2.386-2.253-2.532l-0.012-0.001z"></path>
        </symbol>

        <symbol id="icon-carta-1" viewBox="0 0 32 32">
            <path fill="#fff" d="M32 0l-32 18 10.227 3.787 15.773-14.787-11.997 16.187 0.009 0.003-0.012-0.003v8.813l5.735-6.691 7.267 2.691 4.999-28z"></path>
        </symbol>

    </defs>
</svg>