<svg xmlns="http://www.w3.org/2000/svg" viewBox="0 0 449.7 449.7" style="enable-background:new 0 0 449.7 449.7" xml:space="preserve"><path d="M158.7 81.6H291c42.5 0 77.4 35 77.4 77.4v131.6c0 42.5-35 77.4-77.4 77.4H158.7c-42.5 0-77.4-35-77.4-77.4V159.1c0-42.5 35-77.5 77.4-77.5zm143.2 50c9 .1 16.3 7.4 16.5 16.4-.1 9-7.4 16.3-16.5 16.4-9 .1-16.3-7.1-16.4-16v-.4c-.1-9 7-16.3 16-16.4h.4zm-77.4 15.1h.7c42.5 0 78.1 35.6 78.1 78.1 0 43.2-35.6 78.1-78.1 78.1h-.7c-42.5 0-77.4-35-77.4-78.1 0-42.4 35-78.1 77.4-78.1zm0 26.7h.7c28.1 0 51.4 23.3 51.4 51.4 0 28.8-23.3 52.1-51.4 52.1h-.7c-28.1 0-51.4-23.3-51.4-52.1 0-28.1 23.3-51.4 51.4-51.4zm-65.1-67.1h130.9c29.5 0 53.4 23.9 53.5 53.4V290c0 29.5-24 53.4-53.5 53.5H159.4c-29.5-.1-53.4-24-53.4-53.5V159.7c0-29.5 23.9-53.4 53.4-53.4z" style="fill-rule:evenodd;clip-rule:evenodd;fill:#fff"/></svg>