<svg xmlns="http://www.w3.org/2000/svg" viewBox="0 0 449.7 449.7" style="enable-background:new 0 0 449.7 449.7" xml:space="preserve"><path d="M227.3 184.9c-11.1-58.3 59.1-93.1 100.4-51 0 0 18.5-5.2 34.7-15.5-4.8 13.4-13.9 24.8-25.9 32.5 0 0 22.2-2.9 31.8-8.9 0 0-9.6 19.9-27.3 27.3 9.7 133.7-134.4 215-251 148.5 0 0 57.6 3 82-25.1 0 0-35.4 3-53.2-39.9 0 0 13.3 5.2 26.6-1.5 0 0-41.4-6.6-45-56.1 0 0 13.3 10.3 28.1 6.6 0 0-45.8-27.3-20-76.8 0 .1 48.7 62.1 118.8 59.9z" style="fill-rule:evenodd;clip-rule:evenodd;fill:#fff"/></svg>